# xmcd CD database file
#
# Track frame offsets:
#	182
#	33960
#	66907
#	97695
#	139922
#	168097
#
# Disc length: 2620 seconds
#
# Revision: 0
# Processed by: cddbd v1.5PL3 Copyright (c) Steve Scherf et al.
# Submitted via: CDex 1.60beta1
#
DISCID=430a3a06
DTITLE=Shelly Manne and His Men - Boss Sounds
DYEAR=1966
DGENRE=Jazz
TTITLE0=Margie
TTITLE1=Idle One
TTITLE2=The Breeze And I
TTITLE3=Frank's Tune
TTITLE4=Wondering
TTITLE5=You Name It
EXTD=YEAR: 1966
EXTT0=
EXTT1=
EXTT2=
EXTT3=
EXTT4=
EXTT5=
PLAYORDER=
